# xmcd CD database file
#
# Track frame offsets:
#	150
#	18143
#	37602
#	58928
#	79192
#	94236
#	116678
#	146207
#	169490
#
# Disc length: 2441 seconds
#
# Revision: 0
# Processed by: cddbd v1.5.2PL0 Copyright (c) Steve Scherf et al.
# Submitted via: CDex 1.51
#
DISCID=75098709
DTITLE=Luke Roberts - The Iron Gates At Throop And Newport
DYEAR=2012
DGENRE=Country
TTITLE0=I Don't Want You Anymore
TTITLE1=Cartier Timepiece
TTITLE2=His Song
TTITLE3=Every Time
TTITLE4=WillYou Be Mine
TTITLE5=Spree Wheels
TTITLE6=Old Fashioned Woman
TTITLE7=Lost On Leaving
TTITLE8=Second place Blues
EXTD=YEAR: 2012
EXTT0=
EXTT1=
EXTT2=
EXTT3=
EXTT4=
EXTT5=
EXTT6=
EXTT7=
EXTT8=
PLAYORDER=
